<svg id="visual" viewBox="0 0 960 540" width="960" height="540" xmlns="http://www.w3.org/2000/svg" xmlns:xlink="http://www.w3.org/1999/xlink" version="1.1"><rect x="0" y="0" width="960" height="540" fill="#001220"></rect><defs><linearGradient id="grad1_0" x1="43.8%" y1="0%" x2="100%" y2="100%"><stop offset="14.444444444444446%" stop-color="#fbae3c" stop-opacity="1"></stop><stop offset="85.55555555555554%" stop-color="#fbae3c" stop-opacity="1"></stop></linearGradient></defs><defs><linearGradient id="grad1_1" x1="43.8%" y1="0%" x2="100%" y2="100%"><stop offset="14.444444444444446%" stop-color="#fbae3c" stop-opacity="1"></stop><stop offset="85.55555555555554%" stop-color="#f48350" stop-opacity="1"></stop></linearGradient></defs><defs><linearGradient id="grad1_2" x1="43.8%" y1="0%" x2="100%" y2="100%"><stop offset="14.444444444444446%" stop-color="#d96162" stop-opacity="1"></stop><stop offset="85.55555555555554%" stop-color="#f48350" stop-opacity="1"></stop></linearGradient></defs><defs><linearGradient id="grad1_3" x1="43.8%" y1="0%" x2="100%" y2="100%"><stop offset="14.444444444444446%" stop-color="#d96162" stop-opacity="1"></stop><stop offset="85.55555555555554%" stop-color="#af4b6d" stop-opacity="1"></stop></linearGradient></defs><defs><linearGradient id="grad1_4" x1="43.8%" y1="0%" x2="100%" y2="100%"><stop offset="14.444444444444446%" stop-color="#7c3e6b" stop-opacity="1"></stop><stop offset="85.55555555555554%" stop-color="#af4b6d" stop-opacity="1"></stop></linearGradient></defs><defs><linearGradient id="grad1_5" x1="43.8%" y1="0%" x2="100%" y2="100%"><stop offset="14.444444444444446%" stop-color="#7c3e6b" stop-opacity="1"></stop><stop offset="85.55555555555554%" stop-color="#49335c" stop-opacity="1"></stop></linearGradient></defs><defs><linearGradient id="grad1_6" x1="43.8%" y1="0%" x2="100%" y2="100%"><stop offset="14.444444444444446%" stop-color="#1d2540" stop-opacity="1"></stop><stop offset="85.55555555555554%" stop-color="#49335c" stop-opacity="1"></stop></linearGradient></defs><defs><linearGradient id="grad1_7" x1="43.8%" y1="0%" x2="100%" y2="100%"><stop offset="14.444444444444446%" stop-color="#1d2540" stop-opacity="1"></stop><stop offset="85.55555555555554%" stop-color="#001220" stop-opacity="1"></stop></linearGradient></defs><defs><linearGradient id="grad2_0" x1="0%" y1="0%" x2="56.3%" y2="100%"><stop offset="14.444444444444446%" stop-color="#fbae3c" stop-opacity="1"></stop><stop offset="85.55555555555554%" stop-color="#fbae3c" stop-opacity="1"></stop></linearGradient></defs><defs><linearGradient id="grad2_1" x1="0%" y1="0%" x2="56.3%" y2="100%"><stop offset="14.444444444444446%" stop-color="#f48350" stop-opacity="1"></stop><stop offset="85.55555555555554%" stop-color="#fbae3c" stop-opacity="1"></stop></linearGradient></defs><defs><linearGradient id="grad2_2" x1="0%" y1="0%" x2="56.3%" y2="100%"><stop offset="14.444444444444446%" stop-color="#f48350" stop-opacity="1"></stop><stop offset="85.55555555555554%" stop-color="#d96162" stop-opacity="1"></stop></linearGradient></defs><defs><linearGradient id="grad2_3" x1="0%" y1="0%" x2="56.3%" y2="100%"><stop offset="14.444444444444446%" stop-color="#af4b6d" stop-opacity="1"></stop><stop offset="85.55555555555554%" stop-color="#d96162" stop-opacity="1"></stop></linearGradient></defs><defs><linearGradient id="grad2_4" x1="0%" y1="0%" x2="56.3%" y2="100%"><stop offset="14.444444444444446%" stop-color="#af4b6d" stop-opacity="1"></stop><stop offset="85.55555555555554%" stop-color="#7c3e6b" stop-opacity="1"></stop></linearGradient></defs><defs><linearGradient id="grad2_5" x1="0%" y1="0%" x2="56.3%" y2="100%"><stop offset="14.444444444444446%" stop-color="#49335c" stop-opacity="1"></stop><stop offset="85.55555555555554%" stop-color="#7c3e6b" stop-opacity="1"></stop></linearGradient></defs><defs><linearGradient id="grad2_6" x1="0%" y1="0%" x2="56.3%" y2="100%"><stop offset="14.444444444444446%" stop-color="#49335c" stop-opacity="1"></stop><stop offset="85.55555555555554%" stop-color="#1d2540" stop-opacity="1"></stop></linearGradient></defs><defs><linearGradient id="grad2_7" x1="0%" y1="0%" x2="56.3%" y2="100%"><stop offset="14.444444444444446%" stop-color="#001220" stop-opacity="1"></stop><stop offset="85.55555555555554%" stop-color="#1d2540" stop-opacity="1"></stop></linearGradient></defs><g transform="translate(960, 0)"><path d="M0 297C-58.5 293 -117.1 289.1 -148.5 257.2C-179.9 225.3 -184.2 165.5 -204.4 118C-224.6 70.5 -260.8 35.2 -297 0L0 0Z" fill="#0c1c30"></path><path d="M0 259.9C-51.2 256.4 -102.5 253 -129.9 225.1C-157.4 197.2 -161.1 144.8 -178.8 103.3C-196.5 61.7 -228.2 30.8 -259.9 0L0 0Z" fill="#312c4f"></path><path d="M0 222.8C-43.9 219.8 -87.8 216.8 -111.4 192.9C-134.9 169 -138.1 124.1 -153.3 88.5C-168.5 52.9 -195.6 26.4 -222.7 0L0 0Z" fill="#623965"></path><path d="M0 185.6C-36.6 183.2 -73.2 180.7 -92.8 160.8C-112.4 140.8 -115.1 103.5 -127.7 73.8C-140.4 44 -163 22 -185.6 0L0 0Z" fill="#96446e"></path><path d="M0 148.5C-29.3 146.5 -58.5 144.5 -74.2 128.6C-90 112.7 -92.1 82.8 -102.2 59C-112.3 35.2 -130.4 17.6 -148.5 0L0 0Z" fill="#c55469"></path><path d="M0 111.4C-22 109.9 -43.9 108.4 -55.7 96.5C-67.5 84.5 -69.1 62.1 -76.6 44.3C-84.2 26.4 -97.8 13.2 -111.4 0L0 0Z" fill="#e9705a"></path><path d="M0 74.3C-14.6 73.3 -29.3 72.3 -37.1 64.3C-45 56.3 -46 41.4 -51.1 29.5C-56.2 17.6 -65.2 8.8 -74.2 0L0 0Z" fill="#fa9845"></path><path d="M0 37.1C-7.3 36.6 -14.6 36.1 -18.6 32.2C-22.5 28.2 -23 20.7 -25.5 14.8C-28.1 8.8 -32.6 4.4 -37.1 0L0 0Z" fill="#fbae3c"></path></g><g transform="translate(0, 540)"><path d="M0 -297C38.7 -266.8 77.4 -236.6 124.5 -215.6C171.6 -194.7 227.1 -182.9 257.2 -148.5C287.4 -114.1 292.2 -57 297 0L0 0Z" fill="#0c1c30"></path><path d="M0 -259.9C33.9 -233.5 67.7 -207 108.9 -188.7C150.1 -170.3 198.7 -160 225.1 -129.9C251.4 -99.8 255.7 -49.9 259.9 0L0 0Z" fill="#312c4f"></path><path d="M0 -222.7C29 -200.1 58.1 -177.5 93.4 -161.7C128.7 -146 170.3 -137.2 192.9 -111.4C215.5 -85.6 219.1 -42.8 222.8 0L0 0Z" fill="#623965"></path><path d="M0 -185.6C24.2 -166.8 48.4 -147.9 77.8 -134.8C107.2 -121.7 141.9 -114.3 160.8 -92.8C179.6 -71.3 182.6 -35.7 185.6 0L0 0Z" fill="#96446e"></path><path d="M0 -148.5C19.4 -133.4 38.7 -118.3 62.2 -107.8C85.8 -97.3 113.5 -91.5 128.6 -74.3C143.7 -57 146.1 -28.5 148.5 0L0 0Z" fill="#c55469"></path><path d="M0 -111.4C14.5 -100.1 29 -88.7 46.7 -80.9C64.3 -73 85.1 -68.6 96.5 -55.7C107.8 -42.8 109.6 -21.4 111.4 0L0 0Z" fill="#e9705a"></path><path d="M0 -74.2C9.7 -66.7 19.4 -59.2 31.1 -53.9C42.9 -48.7 56.8 -45.7 64.3 -37.1C71.8 -28.5 73 -14.3 74.3 0L0 0Z" fill="#fa9845"></path><path d="M0 -37.1C4.8 -33.4 9.7 -29.6 15.6 -27C21.4 -24.3 28.4 -22.9 32.2 -18.6C35.9 -14.3 36.5 -7.1 37.1 0L0 0Z" fill="#fbae3c"></path></g></svg>