<svg id="visual" viewBox="0 0 960 540" width="960" height="540" xmlns="http://www.w3.org/2000/svg" xmlns:xlink="http://www.w3.org/1999/xlink" version="1.1"><rect x="0" y="0" width="960" height="540" fill="#1e1e1e"></rect><path d="M500 540L500 540L500 450L500 450L500 360L500 360L500 270L500 270L500 180L500 180L500 90L500 90L500 0L960 0L960 90L960 90L960 180L960 180L960 270L960 270L960 360L960 360L960 450L960 450L960 540L960 540Z" fill="#cc9900"></path><path d="M615 540L615 540L615 450L615 450L615 360L615 360L615 270L615 270L615 180L615 180L615 90L615 90L615 0L960 0L960 90L960 90L960 180L960 180L960 270L960 270L960 360L960 360L960 450L960 450L960 540L960 540Z" fill="#dda600"></path><path d="M731 540L731 540L731 450L731 450L731 360L731 360L731 270L731 270L731 180L731 180L731 90L731 90L731 0L960 0L960 90L960 90L960 180L960 180L960 270L960 270L960 360L960 360L960 450L960 450L960 540L960 540Z" fill="#eeb400"></path><path d="M846 540L846 540L846 450L846 450L846 360L846 360L846 270L846 270L846 180L846 180L846 90L846 90L846 0L960 0L960 90L960 90L960 180L960 180L960 270L960 270L960 360L960 360L960 450L960 450L960 540L960 540Z" fill="#ffc100"></path></svg>