<svg width="1013" height="557" viewBox="0 0 1013 557" fill="none" xmlns="http://www.w3.org/2000/svg">
<rect width="1013" height="557" rx="23" fill="#1E1E1E"/>
<rect width="1013" height="557" rx="23" fill="#1E1E1E"/>
<path d="M51.12 38.19L39.45 30.66V27.42L51.12 19.89V24.21L43.35 28.98V29.1L51.12 33.87V38.19ZM56.0583 43.8L65.9583 17.7H69.9183L60.0183 43.8H56.0583ZM74.8566 38.19V33.87L82.6266 29.1V28.98L74.8566 24.21V19.89L86.5266 27.42V30.66L74.8566 38.19ZM116.953 39.36C115.853 39.36 114.963 39 114.283 38.28C113.603 37.56 113.263 36.68 113.263 35.64C113.263 34.62 113.603 33.75 114.283 33.03C114.963 32.31 115.853 31.95 116.953 31.95C118.073 31.95 118.963 32.31 119.623 33.03C120.303 33.75 120.643 34.62 120.643 35.64C120.643 36.68 120.303 37.56 119.623 38.28C118.963 39 118.073 39.36 116.953 39.36ZM134.941 39.36C133.841 39.36 132.951 39 132.271 38.28C131.591 37.56 131.251 36.68 131.251 35.64C131.251 34.62 131.591 33.75 132.271 33.03C132.951 32.31 133.841 31.95 134.941 31.95C136.061 31.95 136.951 32.31 137.611 33.03C138.291 33.75 138.631 34.62 138.631 35.64C138.631 36.68 138.291 37.56 137.611 38.28C136.951 39 136.061 39.36 134.941 39.36ZM152.93 39.36C151.83 39.36 150.94 39 150.26 38.28C149.58 37.56 149.24 36.68 149.24 35.64C149.24 34.62 149.58 33.75 150.26 33.03C150.94 32.31 151.83 31.95 152.93 31.95C154.05 31.95 154.94 32.31 155.6 33.03C156.28 33.75 156.62 34.62 156.62 35.64C156.62 36.68 156.28 37.56 155.6 38.28C154.94 39 154.05 39.36 152.93 39.36Z" fill="#FFC100"/>
<rect x="36" y="68" width="242" height="12" rx="6" fill="#FFC100"/>
<rect x="36" y="102" width="152" height="12" rx="6" fill="#FCE294"/>
<rect x="127" y="136" width="123" height="12" rx="6" fill="#FCE294"/>
<rect x="270" y="136" width="708" height="12" rx="6" fill="#FCE294"/>
<rect x="126" y="170" width="852" height="12" rx="6" fill="#F4F4F2"/>
<rect x="188" y="272" width="791" height="12" rx="6" fill="#F4F4F2"/>
<rect x="126" y="204" width="123" height="12" rx="6" fill="#F4F4F2"/>
<rect x="127" y="238" width="123" height="12" rx="6" fill="#F4F4F2"/>
<rect x="209" y="102" width="69" height="12" rx="6" fill="#FCE294"/>
<rect x="38" y="136" width="69" height="12" rx="6" fill="#FCE294"/>
<rect x="127" y="510" width="123" height="12" rx="6" fill="#FCE294"/>
<rect x="270" y="510" width="708" height="12" rx="6" fill="#FCE294"/>
<rect x="38" y="510" width="69" height="12" rx="6" fill="#FCE294"/>
<rect x="36" y="170" width="69" height="12" rx="6" fill="#FCE294"/>
<rect x="278" y="408" width="700" height="12" rx="6" fill="#F4F4F2"/>
<rect x="126" y="408" width="131" height="12" rx="6" fill="#F4F4F2"/>
<rect x="279" y="442" width="701" height="12" rx="6" fill="#FFC100"/>
<rect x="126" y="442" width="131" height="12" rx="6" fill="#FFC100"/>
<rect x="36" y="204" width="69" height="12" rx="6" fill="#FCE294"/>
<rect x="36" y="238" width="69" height="12" rx="6" fill="#FCE294"/>
<rect x="196" y="476" width="61" height="12" rx="6" fill="#FCE294"/>
<rect x="36" y="476" width="141" height="12" rx="6" fill="#FCE294"/>
<rect x="300" y="68" width="678" height="12" rx="6" fill="#FFC100"/>
<rect x="279" y="306" width="700" height="12" rx="6" fill="#F4F4F2"/>
<rect x="188" y="306" width="69" height="12" rx="6" fill="#F4F4F2"/>
<rect x="279" y="340" width="700" height="12" rx="6" fill="#F4F4F2"/>
<rect x="188" y="340" width="69" height="12" rx="6" fill="#F4F4F2"/>
<rect x="278" y="374" width="700" height="12" rx="6" fill="#F4F4F2"/>
<rect x="188" y="374" width="69" height="12" rx="6" fill="#F4F4F2"/>
</svg>
