<svg width="282" height="369" viewBox="0 0 282 369" fill="none" xmlns="http://www.w3.org/2000/svg">
<path d="M281.78 0H0V35.22H281.78V0Z" fill="white"/>
<path d="M176.01 70.5V125.45L141.15 160.32L106.29 125.46V70.58H105.66V70.5H0V105.73H71.07V140.03L118.17 187.13V233.02L71.07 280.16L95.98 305.07L141.15 259.89L186.33 305.07L211.23 280.16L164.13 233.06V187.16L211.23 140.07V105.77H281.78V70.5H176.01Z" fill="white"/>
<path d="M281.78 141V368.25H0V141H35.23V333.02H246.57V141H281.78Z" fill="white"/>
<path d="M141.137 205.899L141.108 205.927L141.137 205.956L141.165 205.927L141.137 205.899Z" fill="white"/>
</svg>
