<svg width="960" height="540" viewBox="0 0 960 540" fill="none" xmlns="http://www.w3.org/2000/svg">
<g clip-path="url(#clip0_30_2)">
<path d="M0 0H960V540H0V0Z" fill="#1E293B"/>
<path d="M960 57L880 112.2C800 167.3 640 277.7 480 307.2C320 336.7 160 285.3 80 259.7L0 234V541H80C160 541 320 541 480 541C640 541 800 541 880 541H960V57Z" fill="#45FFE8"/>
<path d="M960 525L880 510.3C800 495.7 640 466.3 480 420.2C320 374 160 311 80 279.5L0 248V541H80C160 541 320 541 480 541C640 541 800 541 880 541H960V525Z" fill="#048CA9"/>
<path d="M960 497L880 494.7C800 492.3 640 487.7 480 465C320 442.3 160 401.7 80 381.3L0 361V541H80C160 541 320 541 480 541C640 541 800 541 880 541H960V497Z" fill="#1E293B"/>
</g>
<defs>
<clipPath id="clip0_30_2">
<rect width="960" height="540" fill="white" transform="matrix(-1 0 0 1 960 0)"/>
</clipPath>
</defs>
</svg>
