<svg id="visual" viewBox="0 0 960 540" width="960" height="540" xmlns="http://www.w3.org/2000/svg" xmlns:xlink="http://www.w3.org/1999/xlink" version="1.1"><rect x="0" y="0" width="960" height="540" fill="#001220"></rect><path d="M0 265L80 230.2C160 195.3 320 125.7 480 91.2C640 56.7 800 57.3 880 57.7L960 58L960 541L880 541C800 541 640 541 480 541C320 541 160 541 80 541L0 541Z" fill="#fa7268"></path><path d="M0 510L80 476.5C160 443 320 376 480 370C640 364 800 419 880 446.5L960 474L960 541L880 541C800 541 640 541 480 541C320 541 160 541 80 541L0 541Z" fill="#c62368"></path></svg>