<svg width="604" height="604" viewBox="0 0 604 604" fill="none" xmlns="http://www.w3.org/2000/svg">
<path d="M493.38 0H110.55C49.4949 0 0 49.4949 0 110.55V493.38C0 554.435 49.4949 603.93 110.55 603.93H493.38C554.435 603.93 603.93 554.435 603.93 493.38V110.55C603.93 49.4949 554.435 0 493.38 0Z" fill="#FFD700"/>
<path d="M442.85 117.84H161.07V153.06H442.85V117.84Z" fill="#1C1C1C"/>
<path d="M337.08 188.34V243.29L302.22 278.16L267.36 243.3V188.42H266.73V188.34H161.07V223.57H232.14V257.87L279.24 304.97V350.86L232.14 398L257.05 422.91L302.22 377.73L347.4 422.91L372.3 398L325.2 350.9V305L372.3 257.91V223.61H442.85V188.34H337.08Z" fill="#1C1C1C"/>
<path d="M442.85 258.84V486.09H161.07V258.84H196.3V450.86H407.64V258.84H442.85Z" fill="#1C1C1C"/>
<path d="M302.207 323.739L302.179 323.767L302.207 323.796L302.235 323.767L302.207 323.739Z" fill="#1E1E1E"/>
</svg>
